<svg width="80" height="70" viewBox="0 0 80 70" fill="none" xmlns="http://www.w3.org/2000/svg">
<path fill-rule="evenodd" clip-rule="evenodd" d="M39.9924 54.8216C30.1286 54.8216 22.1039 47.0524 22.1039 37.5022C22.1039 36.6634 22.8064 35.9835 23.6724 35.9835H56.3124C57.1785 35.9835 57.881 36.6633 57.881 37.5022C57.881 47.0524 49.8559 54.8216 39.9924 54.8216ZM30.1499 24.8633C32.4177 24.8633 34.2626 26.6498 34.2626 28.8449C34.2626 31.0406 32.4177 32.8272 30.1499 32.8272C27.882 32.8272 26.0371 31.0406 26.0371 28.8449C26.0371 26.6498 27.882 24.8633 30.1499 24.8633ZM49.0556 24.8633C51.3234 24.8633 53.1683 26.6498 53.1683 28.8449C53.1683 31.0406 51.3234 32.8272 49.0556 32.8272C46.7877 32.8272 44.9429 31.0406 44.9429 28.8449C44.9429 26.6498 46.7877 24.8633 49.0556 24.8633ZM68.3741 14.2334C64.6197 9.91373 60.358 6.48124 55.7079 4.03055C50.6326 1.35583 45.3474 0 39.9993 0C34.6511 0 29.3653 1.35579 24.2907 4.03055C19.6406 6.48124 15.3789 9.91373 11.6244 14.2334C4.34543 22.6086 0 33.2779 0 42.7723C0 60.0764 14.5786 70 40 70C65.4214 70 80 60.076 80 42.7723C80 33.2774 75.654 22.6084 68.3756 14.2334" fill="white"/>
</svg>
