<svg width="171" height="150" viewBox="0 0 171 150" fill="none" xmlns="http://www.w3.org/2000/svg">
<path fill-rule="evenodd" clip-rule="evenodd" d="M85.482 92.645C76.4107 92.645 68.3368 96.7513 63.1133 103.141C69.1692 108.046 76.9689 111 85.482 111C93.995 111 101.795 108.046 107.851 103.141C102.628 96.7513 94.5532 92.645 85.482 92.645ZM85.482 117.181C64.398 117.181 47.2452 100.574 47.2452 80.1608C47.2452 78.368 48.7469 76.9148 50.598 76.9148H120.366C122.218 76.9148 123.719 78.3678 123.719 80.1608C123.719 100.574 106.565 117.181 85.482 117.181V117.181ZM58.0511 59.7982C56.3562 59.078 55.5844 57.1634 56.3276 55.5214C57.0707 53.8805 59.0483 53.1325 60.7445 53.8527L73.6984 59.3517C74.9163 59.87 75.7035 61.0367 75.7035 62.3252C75.7035 63.6137 74.9163 64.7802 73.6984 65.2975L60.7445 70.7977C60.3068 70.9832 59.8499 71.0713 59.4003 71.0713C58.1085 71.0713 56.8787 70.3454 56.3278 69.1277C55.5846 67.4857 56.3564 65.5712 58.0514 64.8521L64.0022 62.3252L58.0511 59.7982ZM97.2682 59.3517L110.221 53.8527C111.917 53.1337 113.895 53.8806 114.638 55.5215C115.382 57.1636 114.609 59.078 112.914 59.7983L106.963 62.3252L112.914 64.8521C114.609 65.5711 115.382 67.4857 114.638 69.1277C114.087 70.3453 112.856 71.0713 111.565 71.0713C111.116 71.0713 110.659 70.9831 110.221 70.7976L97.2684 65.2974C96.0493 64.7802 95.2621 63.6135 95.2621 62.3251C95.2621 61.0366 96.0493 59.8701 97.2684 59.3516L97.2682 59.3517ZM146.15 30.424C138.125 21.1906 129.015 13.8536 119.076 8.6153C108.227 2.89809 96.9301 0 85.4985 0C74.0668 0 62.7683 2.898 51.9214 8.6153C41.9817 13.8536 32.8723 21.1906 24.8472 30.424C9.28835 48.3258 0 71.1314 0 91.4257C0 128.413 31.1617 149.625 85.5 149.625C139.838 149.625 171 128.412 171 91.4257C171 71.1305 161.71 48.3255 146.153 30.424H146.15Z" fill="white"/>
</svg>
