<svg width="128" height="128" viewBox="0 0 128 128" fill="none" xmlns="http://www.w3.org/2000/svg">
<path d="M13.9187 23.5993C13.4313 16.3087 17.0012 9.34212 23.8418 6.77401C32.3856 3.56654 45.7944 0 63.1795 0C80.6577 0 94.3682 3.60488 103.13 6.82556C110.069 9.37662 113.777 16.3882 113.338 23.769L110.769 67H16.8205L13.9187 23.5993Z" fill="#6A6A6A"/>
<path fill-rule="evenodd" clip-rule="evenodd" d="M23.3266 63.8433C9.58302 66.0726 0 78.1865 0 92.1097V101.531H0.0272956C0.00916519 101.924 0 102.319 0 102.716C0 116.68 11.32 128 25.284 128H102.716C116.68 128 128 116.68 128 102.716C128 102.319 127.991 101.924 127.973 101.531H128V92.2337C128 78.2537 118.344 66.1078 104.541 63.8933C92.2747 61.9255 77.0509 60.0494 63.5897 60.0494C50.2427 60.0494 35.3452 61.8938 23.3266 63.8433Z" fill="#A3A3A3"/>
<path fill-rule="evenodd" clip-rule="evenodd" d="M74.0416 64.8719C70.8518 64.8719 68.2564 62.3594 68.2564 59.2713C68.2564 58.4326 68.959 57.7527 69.825 57.7527C70.6916 57.7527 71.3936 58.4325 71.3936 59.2713C71.3936 60.6847 72.5816 61.8348 74.0414 61.8348C75.5012 61.8348 76.6887 60.6846 76.6887 59.2713C76.6887 58.4326 77.3913 57.7527 78.2573 57.7527C79.1239 57.7527 79.8258 58.4325 79.8258 59.2713C79.8258 62.3594 77.231 64.8719 74.0413 64.8719H74.0416ZM79.1701 71.6737C79.1383 71.7691 78.3699 74.037 76.1066 76.263C74.0468 78.2893 70.2918 80.7042 64.1004 80.7042C57.9096 80.7042 54.1546 78.2893 52.0943 76.263C49.8314 74.037 49.0624 71.7692 49.0307 71.6737C48.7662 70.8751 49.2204 70.0195 50.0458 69.7634C50.87 69.5073 51.7539 69.9473 52.0185 70.7459C52.1128 71.0204 54.5135 77.667 64.1005 77.667C73.7785 77.667 76.1602 70.8154 76.1825 70.7459C76.4476 69.9473 77.3309 69.5073 78.1556 69.7634C78.9804 70.0195 79.4346 70.875 79.1701 71.6737H79.1701ZM49.943 57.7529C50.8091 57.7529 51.5116 58.4326 51.5116 59.2715C51.5116 60.6848 52.6996 61.8349 54.1594 61.8349C55.6192 61.8349 56.8067 60.6848 56.8067 59.2715C56.8067 58.4327 57.5093 57.7529 58.3753 57.7529C59.2413 57.7529 59.9439 58.4326 59.9439 59.2715C59.9439 62.3595 57.349 64.872 54.1593 64.872C50.9696 64.872 48.3741 62.3595 48.3741 59.2715C48.3741 58.4327 49.0767 57.7529 49.9427 57.7529H49.943ZM92.3741 43.2334C88.6197 38.9137 84.358 35.4812 79.7079 33.0305C74.6326 30.3558 69.3474 29 63.9993 29C58.6511 29 53.3653 30.3558 48.2907 33.0305C43.6406 35.4812 39.3789 38.9137 35.625 43.2334C28.3454 51.6086 24 62.2779 24 71.7723C24 89.0764 38.58 99 64 99C89.4214 99 104 89.076 104 71.7723C104 62.2774 99.654 51.6084 92.3756 43.2334" fill="white"/>
</svg>
