<svg width="128" height="128" viewBox="0 0 128 128" fill="none" xmlns="http://www.w3.org/2000/svg">
<path d="M13.9187 23.5993C13.4313 16.3087 17.0012 9.34212 23.8418 6.77401C32.3856 3.56654 45.7944 0 63.1795 0C80.6577 0 94.3682 3.60488 103.13 6.82557C110.069 9.37662 113.777 16.3882 113.338 23.769L110.769 67H16.8205L13.9187 23.5993Z" fill="#DC4837"/>
<path fill-rule="evenodd" clip-rule="evenodd" d="M23.3266 63.8433C9.58302 66.0726 0 78.1865 0 92.1097V101.531H0.0272956C0.00916519 101.924 0 102.319 0 102.716C0 116.68 11.32 128 25.284 128H102.716C116.68 128 128 116.68 128 102.716C128 102.319 127.991 101.924 127.973 101.531H128V92.2337C128 78.2537 118.344 66.1078 104.541 63.8933C92.2747 61.9255 77.0509 60.0494 63.5897 60.0494C50.2427 60.0494 35.3452 61.8938 23.3266 63.8433Z" fill="#FF5B49"/>
<path fill-rule="evenodd" clip-rule="evenodd" d="M63.9916 68.3427C59.7477 68.3427 55.9704 70.2638 53.5267 73.2531C56.3599 75.5479 60.0089 76.9299 63.9916 76.9299C67.9743 76.9299 71.6233 75.5481 74.4564 73.2531C72.0133 70.2638 68.2354 68.3427 63.9916 68.3427ZM63.9916 79.8215C54.1277 79.8215 46.103 72.0524 46.103 62.5021C46.103 61.6634 46.8056 60.9835 47.6716 60.9835H80.3116C81.1782 60.9835 81.8801 61.6633 81.8801 62.5021C81.8801 72.0524 73.855 79.8215 63.9916 79.8215ZM51.1584 52.9758C50.3655 52.6388 50.0044 51.7431 50.3521 50.9749C50.6997 50.2073 51.625 49.8573 52.4185 50.1942L58.4788 52.7669C59.0485 53.0094 59.4168 53.5552 59.4168 54.158C59.4168 54.7608 59.0485 55.3065 58.4788 55.5485L52.4185 58.1217C52.2137 58.2085 52 58.2498 51.7896 58.2498C51.1852 58.2498 50.6099 57.9101 50.3522 57.3405C50.0045 56.5722 50.3656 55.6766 51.1585 55.3402L53.9425 54.158L51.1584 52.9758ZM69.5056 52.7669L75.5653 50.1943C76.3588 49.8579 77.284 50.2073 77.6317 50.975C77.9799 51.7432 77.6183 52.6388 76.8254 52.9758L74.0414 54.158L76.8254 55.3401C77.6183 55.6765 77.9799 56.5722 77.6317 57.3404C77.3739 57.9101 76.798 58.2497 76.1943 58.2497C75.9839 58.2497 75.7702 58.2085 75.5654 58.1217L69.5057 55.5485C68.9354 55.3065 68.5671 54.7607 68.5671 54.1579C68.5671 53.5551 68.9354 53.0094 69.5057 52.7668L69.5056 52.7669ZM92.3741 39.2334C88.6197 34.9137 84.358 31.4812 79.7079 29.0305C74.6326 26.3558 69.3474 25 63.9993 25C58.6511 25 53.3653 26.3558 48.2907 29.0305C43.6406 31.4812 39.3789 34.9137 35.6244 39.2334C28.3454 47.6086 24 58.2779 24 67.7723C24 85.0764 38.5786 95 64 95C89.4214 95 104 85.076 104 67.7723C104 58.2774 99.654 47.6084 92.3756 39.2334H92.3741Z" fill="white"/>
<path d="M105.25 40C104.942 39.9997 104.642 39.8995 104.397 39.7143C104.15 39.5294 103.972 39.2692 103.887 38.9737L103.593 37.9505C102.873 35.4067 101.512 33.0897 99.6389 31.2204C97.7658 29.3514 95.4437 27.9929 92.8944 27.2751L91.8662 26.9821C91.4683 26.868 91.1399 26.5864 90.9672 26.2112C90.7946 25.8357 90.7946 25.404 90.9672 25.0285C91.1399 24.6533 91.468 24.3717 91.8659 24.2576L92.8928 23.9646C95.4421 23.2471 97.7646 21.8893 99.6376 20.0203C101.511 18.1513 102.872 15.8343 103.591 13.2905L103.885 12.2645C103.999 11.8675 104.282 11.54 104.658 11.3678C105.034 11.1955 105.467 11.1955 105.843 11.3678C106.219 11.54 106.501 11.8675 106.615 12.2645L106.909 13.2892C107.628 15.8332 108.989 18.1504 110.862 20.0197C112.735 21.889 115.057 23.2471 117.607 23.9649L118.635 24.2579C119.032 24.3714 119.36 24.6514 119.533 25.025C119.706 25.3989 119.708 25.8294 119.537 26.2046C119.367 26.5795 119.041 26.862 118.645 26.978L117.451 27.3292C114.777 28.1146 112.362 29.6018 110.461 31.6351C108.559 33.6684 107.238 36.1736 106.637 38.8896C106.569 39.1971 106.4 39.4731 106.157 39.6741C105.914 39.8751 105.611 39.9898 105.296 39.9999L105.25 40ZM95.2284 14.4252C94.9202 14.4255 94.6202 14.3253 94.3741 14.1405C94.1283 13.9552 93.9493 13.6948 93.8647 13.3993L93.733 12.9416C93.1539 10.8884 91.546 9.28367 89.4884 8.70586L89.0281 8.57342C88.6306 8.45996 88.3024 8.17896 88.1295 7.80379C87.9568 7.42861 87.9568 6.99716 88.1295 6.62202C88.3024 6.24685 88.6306 5.96585 89.0281 5.85207L89.4868 5.72058C91.5448 5.1428 93.153 3.53806 93.7317 1.48484L93.8647 1.02622C93.9785 0.629232 94.2604 0.301778 94.636 0.129195C95.012 -0.0430649 95.4447 -0.0430649 95.8207 0.129195C96.1964 0.30177 96.4783 0.629224 96.592 1.02622L96.7238 1.48389C97.3028 3.5371 98.9107 5.14181 100.968 5.71962L101.428 5.85237C101.825 5.96584 102.153 6.24588 102.326 6.6198C102.499 6.99371 102.5 7.42421 102.329 7.79938C102.159 8.17424 101.833 8.45649 101.437 8.57218L100.903 8.728C99.8426 9.03997 98.885 9.63004 98.1308 10.4367C97.3763 11.2433 96.8527 12.2374 96.6142 13.3148C96.5461 13.6221 96.3769 13.8983 96.134 14.0993C95.8913 14.3003 95.5882 14.4151 95.2727 14.4252L95.2284 14.4252ZM120.772 20.0892C120.464 20.0895 120.164 19.9893 119.917 19.8044C119.672 19.6192 119.493 19.3587 119.408 19.0632L119.276 18.6055C118.697 16.5523 117.089 14.9476 115.032 14.3698L114.572 14.2371C114.174 14.1236 113.846 13.8423 113.673 13.4674C113.5 13.0923 113.5 12.6605 113.673 12.2853C113.846 11.9105 114.174 11.6292 114.572 11.5157L115.03 11.3842C117.088 10.8064 118.696 9.20203 119.275 7.14881L119.408 6.69019C119.522 6.2932 119.804 5.96575 120.179 5.79316C120.555 5.6209 120.988 5.6209 121.364 5.79316C121.74 5.96574 122.022 6.29319 122.135 6.69019L122.267 7.14786C122.846 9.20107 124.454 10.8058 126.512 11.3836L126.972 11.5163C127.368 11.6298 127.696 11.9099 127.869 12.2838C128.042 12.6577 128.044 13.0882 127.873 13.4633C127.702 13.8382 127.376 14.1205 126.98 14.2361L126.447 14.392C125.386 14.7039 124.428 15.294 123.674 16.1007C122.92 16.9073 122.396 17.9013 122.158 18.9788C122.089 19.286 121.92 19.5623 121.677 19.7633C121.435 19.9643 121.132 20.079 120.816 20.0892L120.772 20.0892Z" fill="#FFFEDC"/>
</svg>
