<svg width="128" height="128" viewBox="0 0 128 128" fill="none" xmlns="http://www.w3.org/2000/svg">
<path d="M13.9187 23.5993C13.4313 16.3087 17.0012 9.34212 23.8418 6.77401C32.3856 3.56654 45.7944 0 63.1795 0C80.6577 0 94.3682 3.60488 103.13 6.82556C110.069 9.37662 113.777 16.3882 113.338 23.769L110.769 67H16.8205L13.9187 23.5993Z" fill="#7F6017"/>
<path fill-rule="evenodd" clip-rule="evenodd" d="M23.3266 63.8433C9.58302 66.0726 0 78.1865 0 92.1097V101.531H0.0272956C0.00916519 101.924 0 102.319 0 102.716C0 116.68 11.32 128 25.284 128H102.716C116.68 128 128 116.68 128 102.716C128 102.319 127.991 101.924 127.973 101.531H128V92.2337C128 78.2537 118.344 66.1078 104.541 63.8933C92.2747 61.9255 77.0509 60.0494 63.5897 60.0494C50.2427 60.0494 35.3452 61.8938 23.3266 63.8433Z" fill="#BE8F22"/>
</svg>
