<svg width="1440" height="106" viewBox="0 0 1440 106" fill="none" xmlns="http://www.w3.org/2000/svg">
<path fill-rule="evenodd" clip-rule="evenodd" d="M39.9916 79.3427C35.7477 79.3427 31.9704 81.2638 29.5267 84.2531C32.3599 86.5479 36.0089 87.9299 39.9916 87.9299C43.9743 87.9299 47.6233 86.5481 50.4564 84.2531C48.0133 81.2638 44.2354 79.3427 39.9916 79.3427ZM39.9916 90.8215C30.1277 90.8215 22.103 83.0524 22.103 73.5021C22.103 72.6634 22.8056 71.9835 23.6716 71.9835H56.3116C57.1782 71.9835 57.8801 72.6633 57.8801 73.5021C57.8801 83.0524 49.855 90.8215 39.9916 90.8215V90.8215ZM27.1584 63.9758C26.3655 63.6388 26.0044 62.7431 26.3521 61.9749C26.6997 61.2073 27.625 60.8573 28.4185 61.1942L34.4788 63.7669C35.0485 64.0094 35.4168 64.5552 35.4168 65.158C35.4168 65.7608 35.0485 66.3065 34.4788 66.5485L28.4185 69.1217C28.2137 69.2085 28 69.2498 27.7896 69.2498C27.1852 69.2498 26.6099 68.9101 26.3522 68.3405C26.0045 67.5722 26.3656 66.6766 27.1585 66.3402L29.9425 65.158L27.1584 63.9758ZM45.5056 63.7669L51.5653 61.1943C52.3588 60.8579 53.284 61.2073 53.6317 61.975C53.9799 62.7432 53.6183 63.6388 52.8254 63.9758L50.0414 65.158L52.8254 66.3401C53.6183 66.6765 53.9799 67.5722 53.6317 68.3404C53.3739 68.9101 52.798 69.2497 52.1943 69.2497C51.9839 69.2497 51.7702 69.2085 51.5654 69.1217L45.5057 66.5485C44.9354 66.3065 44.5671 65.7607 44.5671 65.1579C44.5671 64.5551 44.9354 64.0094 45.5057 63.7668L45.5056 63.7669ZM68.3741 50.2334C64.6197 45.9137 60.358 42.4812 55.7079 40.0305C50.6326 37.3558 45.3474 36 39.9993 36C34.6511 36 29.3653 37.3558 24.2907 40.0305C19.6406 42.4812 15.3789 45.9137 11.6244 50.2334C4.34543 58.6086 0 69.2779 0 78.7723C0 96.0764 14.5786 106 40 106C65.4214 106 80 96.076 80 78.7723C80 69.2774 75.654 58.6084 68.3756 50.2334H68.3741Z" fill="white"/>
<path fill-rule="evenodd" clip-rule="evenodd" d="M119.992 75.3427C115.748 75.3427 111.97 77.2638 109.527 80.2531C112.36 82.5479 116.009 83.9299 119.992 83.9299C123.974 83.9299 127.623 82.5481 130.456 80.2531C128.013 77.2638 124.235 75.3427 119.992 75.3427ZM119.992 86.8215C110.128 86.8215 102.103 79.0524 102.103 69.5021C102.103 68.6634 102.806 67.9835 103.672 67.9835H136.312C137.178 67.9835 137.88 68.6633 137.88 69.5021C137.88 79.0524 129.855 86.8215 119.992 86.8215V86.8215ZM107.158 59.9758C106.365 59.6388 106.004 58.7431 106.352 57.9749C106.7 57.2073 107.625 56.8573 108.418 57.1942L114.479 59.7669C115.049 60.0094 115.417 60.5552 115.417 61.158C115.417 61.7608 115.049 62.3065 114.479 62.5485L108.418 65.1217C108.214 65.2085 108 65.2498 107.79 65.2498C107.185 65.2498 106.61 64.9101 106.352 64.3405C106.005 63.5722 106.366 62.6766 107.159 62.3402L109.943 61.158L107.158 59.9758ZM125.506 59.7669L131.565 57.1943C132.359 56.8579 133.284 57.2073 133.632 57.975C133.98 58.7432 133.618 59.6388 132.825 59.9758L130.041 61.158L132.825 62.3401C133.618 62.6765 133.98 63.5722 133.632 64.3404C133.374 64.9101 132.798 65.2497 132.194 65.2497C131.984 65.2497 131.77 65.2085 131.565 65.1217L125.506 62.5485C124.935 62.3065 124.567 61.7607 124.567 61.1579C124.567 60.5551 124.935 60.0094 125.506 59.7668L125.506 59.7669ZM148.374 46.2334C144.62 41.9137 140.358 38.4812 135.708 36.0305C130.633 33.3558 125.347 32 119.999 32C114.651 32 109.365 33.3558 104.291 36.0305C99.6406 38.4812 95.3789 41.9137 91.6244 46.2334C84.3454 54.6086 80 65.2779 80 74.7723C80 92.0764 94.5786 102 120 102C145.421 102 160 92.076 160 74.7723C160 65.2774 155.654 54.6084 148.376 46.2334H148.374Z" fill="white"/>
<path fill-rule="evenodd" clip-rule="evenodd" d="M199.992 71.3427C195.748 71.3427 191.97 73.2638 189.527 76.2531C192.36 78.5479 196.009 79.9299 199.992 79.9299C203.974 79.9299 207.623 78.5481 210.456 76.2531C208.013 73.2638 204.235 71.3427 199.992 71.3427ZM199.992 82.8215C190.128 82.8215 182.103 75.0524 182.103 65.5021C182.103 64.6634 182.806 63.9835 183.672 63.9835H216.312C217.178 63.9835 217.88 64.6633 217.88 65.5021C217.88 75.0524 209.855 82.8215 199.992 82.8215V82.8215ZM187.158 55.9758C186.365 55.6388 186.004 54.7431 186.352 53.9749C186.7 53.2073 187.625 52.8573 188.418 53.1942L194.479 55.7669C195.049 56.0094 195.417 56.5552 195.417 57.158C195.417 57.7608 195.049 58.3065 194.479 58.5485L188.418 61.1217C188.214 61.2085 188 61.2498 187.79 61.2498C187.185 61.2498 186.61 60.9101 186.352 60.3405C186.005 59.5722 186.366 58.6766 187.159 58.3402L189.943 57.158L187.158 55.9758ZM205.506 55.7669L211.565 53.1943C212.359 52.8579 213.284 53.2073 213.632 53.975C213.98 54.7432 213.618 55.6388 212.825 55.9758L210.041 57.158L212.825 58.3401C213.618 58.6765 213.98 59.5722 213.632 60.3404C213.374 60.9101 212.798 61.2497 212.194 61.2497C211.984 61.2497 211.77 61.2085 211.565 61.1217L205.506 58.5485C204.935 58.3065 204.567 57.7607 204.567 57.1579C204.567 56.5551 204.935 56.0094 205.506 55.7668L205.506 55.7669ZM228.374 42.2334C224.62 37.9137 220.358 34.4812 215.708 32.0305C210.633 29.3558 205.347 28 199.999 28C194.651 28 189.365 29.3558 184.291 32.0305C179.641 34.4812 175.379 37.9137 171.624 42.2334C164.345 50.6086 160 61.2779 160 70.7723C160 88.0764 174.579 98 200 98C225.421 98 240 88.076 240 70.7723C240 61.2774 235.654 50.6084 228.376 42.2334H228.374Z" fill="white"/>
<path fill-rule="evenodd" clip-rule="evenodd" d="M279.992 67.3427C275.748 67.3427 271.97 69.2638 269.527 72.2531C272.36 74.5479 276.009 75.9299 279.992 75.9299C283.974 75.9299 287.623 74.5481 290.456 72.2531C288.013 69.2638 284.235 67.3427 279.992 67.3427ZM279.992 78.8215C270.128 78.8215 262.103 71.0524 262.103 61.5021C262.103 60.6634 262.806 59.9835 263.672 59.9835H296.312C297.178 59.9835 297.88 60.6633 297.88 61.5021C297.88 71.0524 289.855 78.8215 279.992 78.8215V78.8215ZM267.158 51.9758C266.365 51.6388 266.004 50.7431 266.352 49.9749C266.7 49.2073 267.625 48.8573 268.418 49.1942L274.479 51.7669C275.049 52.0094 275.417 52.5552 275.417 53.158C275.417 53.7608 275.049 54.3065 274.479 54.5485L268.418 57.1217C268.214 57.2085 268 57.2498 267.79 57.2498C267.185 57.2498 266.61 56.9101 266.352 56.3405C266.005 55.5722 266.366 54.6766 267.159 54.3402L269.943 53.158L267.158 51.9758ZM285.506 51.7669L291.565 49.1943C292.359 48.8579 293.284 49.2073 293.632 49.975C293.98 50.7432 293.618 51.6388 292.825 51.9758L290.041 53.158L292.825 54.3401C293.618 54.6765 293.98 55.5722 293.632 56.3404C293.374 56.9101 292.798 57.2497 292.194 57.2497C291.984 57.2497 291.77 57.2085 291.565 57.1217L285.506 54.5485C284.935 54.3065 284.567 53.7607 284.567 53.1579C284.567 52.5551 284.935 52.0094 285.506 51.7668L285.506 51.7669ZM308.374 38.2334C304.62 33.9137 300.358 30.4812 295.708 28.0305C290.633 25.3558 285.347 24 279.999 24C274.651 24 269.365 25.3558 264.291 28.0305C259.641 30.4812 255.379 33.9137 251.624 38.2334C244.345 46.6086 240 57.2779 240 66.7723C240 84.0764 254.579 94 280 94C305.421 94 320 84.076 320 66.7723C320 57.2774 315.654 46.6084 308.376 38.2334H308.374Z" fill="white"/>
<path fill-rule="evenodd" clip-rule="evenodd" d="M359.992 63.3427C355.748 63.3427 351.97 65.2638 349.527 68.2531C352.36 70.5479 356.009 71.9299 359.992 71.9299C363.974 71.9299 367.623 70.5481 370.456 68.2531C368.013 65.2638 364.235 63.3427 359.992 63.3427ZM359.992 74.8215C350.128 74.8215 342.103 67.0524 342.103 57.5021C342.103 56.6634 342.806 55.9835 343.672 55.9835H376.312C377.178 55.9835 377.88 56.6633 377.88 57.5021C377.88 67.0524 369.855 74.8215 359.992 74.8215V74.8215ZM347.158 47.9758C346.365 47.6388 346.004 46.7431 346.352 45.9749C346.7 45.2073 347.625 44.8573 348.418 45.1942L354.479 47.7669C355.049 48.0094 355.417 48.5552 355.417 49.158C355.417 49.7608 355.049 50.3065 354.479 50.5485L348.418 53.1217C348.214 53.2085 348 53.2498 347.79 53.2498C347.185 53.2498 346.61 52.9101 346.352 52.3405C346.005 51.5722 346.366 50.6766 347.159 50.3402L349.943 49.158L347.158 47.9758ZM365.506 47.7669L371.565 45.1943C372.359 44.8579 373.284 45.2073 373.632 45.975C373.98 46.7432 373.618 47.6388 372.825 47.9758L370.041 49.158L372.825 50.3401C373.618 50.6765 373.98 51.5722 373.632 52.3404C373.374 52.9101 372.798 53.2497 372.194 53.2497C371.984 53.2497 371.77 53.2085 371.565 53.1217L365.506 50.5485C364.935 50.3065 364.567 49.7607 364.567 49.1579C364.567 48.5551 364.935 48.0094 365.506 47.7668L365.506 47.7669ZM388.374 34.2334C384.62 29.9137 380.358 26.4812 375.708 24.0305C370.633 21.3558 365.347 20 359.999 20C354.651 20 349.365 21.3558 344.291 24.0305C339.641 26.4812 335.379 29.9137 331.624 34.2334C324.345 42.6086 320 53.2779 320 62.7723C320 80.0764 334.579 90 360 90C385.421 90 400 80.076 400 62.7723C400 53.2774 395.654 42.6084 388.376 34.2334H388.374Z" fill="white"/>
<path fill-rule="evenodd" clip-rule="evenodd" d="M439.992 59.3427C435.748 59.3427 431.97 61.2638 429.527 64.2531C432.36 66.5479 436.009 67.9299 439.992 67.9299C443.974 67.9299 447.623 66.5481 450.456 64.2531C448.013 61.2638 444.235 59.3427 439.992 59.3427ZM439.992 70.8215C430.128 70.8215 422.103 63.0524 422.103 53.5021C422.103 52.6634 422.806 51.9835 423.672 51.9835H456.312C457.178 51.9835 457.88 52.6633 457.88 53.5021C457.88 63.0524 449.855 70.8215 439.992 70.8215V70.8215ZM427.158 43.9758C426.365 43.6388 426.004 42.7431 426.352 41.9749C426.7 41.2073 427.625 40.8573 428.418 41.1942L434.479 43.7669C435.049 44.0094 435.417 44.5552 435.417 45.158C435.417 45.7608 435.049 46.3065 434.479 46.5485L428.418 49.1217C428.214 49.2085 428 49.2498 427.79 49.2498C427.185 49.2498 426.61 48.9101 426.352 48.3405C426.005 47.5722 426.366 46.6766 427.159 46.3402L429.943 45.158L427.158 43.9758ZM445.506 43.7669L451.565 41.1943C452.359 40.8579 453.284 41.2073 453.632 41.975C453.98 42.7432 453.618 43.6388 452.825 43.9758L450.041 45.158L452.825 46.3401C453.618 46.6765 453.98 47.5722 453.632 48.3404C453.374 48.9101 452.798 49.2497 452.194 49.2497C451.984 49.2497 451.77 49.2085 451.565 49.1217L445.506 46.5485C444.935 46.3065 444.567 45.7607 444.567 45.1579C444.567 44.5551 444.935 44.0094 445.506 43.7668L445.506 43.7669ZM468.374 30.2334C464.62 25.9137 460.358 22.4812 455.708 20.0305C450.633 17.3558 445.347 16 439.999 16C434.651 16 429.365 17.3558 424.291 20.0305C419.641 22.4812 415.379 25.9137 411.624 30.2334C404.345 38.6086 400 49.2779 400 58.7723C400 76.0764 414.579 86 440 86C465.421 86 480 76.076 480 58.7723C480 49.2774 475.654 38.6084 468.376 30.2334H468.374Z" fill="white"/>
<path fill-rule="evenodd" clip-rule="evenodd" d="M519.992 55.3427C515.748 55.3427 511.97 57.2638 509.527 60.2531C512.36 62.5479 516.009 63.9299 519.992 63.9299C523.974 63.9299 527.623 62.5481 530.456 60.2531C528.013 57.2638 524.235 55.3427 519.992 55.3427ZM519.992 66.8215C510.128 66.8215 502.103 59.0524 502.103 49.5021C502.103 48.6634 502.806 47.9835 503.672 47.9835H536.312C537.178 47.9835 537.88 48.6633 537.88 49.5021C537.88 59.0524 529.855 66.8215 519.992 66.8215V66.8215ZM507.158 39.9758C506.365 39.6388 506.004 38.7431 506.352 37.9749C506.7 37.2073 507.625 36.8573 508.418 37.1942L514.479 39.7669C515.049 40.0094 515.417 40.5552 515.417 41.158C515.417 41.7608 515.049 42.3065 514.479 42.5485L508.418 45.1217C508.214 45.2085 508 45.2498 507.79 45.2498C507.185 45.2498 506.61 44.9101 506.352 44.3405C506.005 43.5722 506.366 42.6766 507.159 42.3402L509.943 41.158L507.158 39.9758ZM525.506 39.7669L531.565 37.1943C532.359 36.8579 533.284 37.2073 533.632 37.975C533.98 38.7432 533.618 39.6388 532.825 39.9758L530.041 41.158L532.825 42.3401C533.618 42.6765 533.98 43.5722 533.632 44.3404C533.374 44.9101 532.798 45.2497 532.194 45.2497C531.984 45.2497 531.77 45.2085 531.565 45.1217L525.506 42.5485C524.935 42.3065 524.567 41.7607 524.567 41.1579C524.567 40.5551 524.935 40.0094 525.506 39.7668L525.506 39.7669ZM548.374 26.2334C544.62 21.9137 540.358 18.4812 535.708 16.0305C530.633 13.3558 525.347 12 519.999 12C514.651 12 509.365 13.3558 504.291 16.0305C499.641 18.4812 495.379 21.9137 491.624 26.2334C484.345 34.6086 480 45.2779 480 54.7723C480 72.0764 494.579 82 520 82C545.421 82 560 72.076 560 54.7723C560 45.2774 555.654 34.6084 548.376 26.2334H548.374Z" fill="white"/>
<path fill-rule="evenodd" clip-rule="evenodd" d="M599.992 51.3427C595.748 51.3427 591.97 53.2638 589.527 56.2531C592.36 58.5479 596.009 59.9299 599.992 59.9299C603.974 59.9299 607.623 58.5481 610.456 56.2531C608.013 53.2638 604.235 51.3427 599.992 51.3427ZM599.992 62.8215C590.128 62.8215 582.103 55.0524 582.103 45.5021C582.103 44.6634 582.806 43.9835 583.672 43.9835H616.312C617.178 43.9835 617.88 44.6633 617.88 45.5021C617.88 55.0524 609.855 62.8215 599.992 62.8215V62.8215ZM587.158 35.9758C586.365 35.6388 586.004 34.7431 586.352 33.9749C586.7 33.2073 587.625 32.8573 588.418 33.1942L594.479 35.7669C595.049 36.0094 595.417 36.5552 595.417 37.158C595.417 37.7608 595.049 38.3065 594.479 38.5485L588.418 41.1217C588.214 41.2085 588 41.2498 587.79 41.2498C587.185 41.2498 586.61 40.9101 586.352 40.3405C586.005 39.5722 586.366 38.6766 587.159 38.3402L589.943 37.158L587.158 35.9758ZM605.506 35.7669L611.565 33.1943C612.359 32.8579 613.284 33.2073 613.632 33.975C613.98 34.7432 613.618 35.6388 612.825 35.9758L610.041 37.158L612.825 38.3401C613.618 38.6765 613.98 39.5722 613.632 40.3404C613.374 40.9101 612.798 41.2497 612.194 41.2497C611.984 41.2497 611.77 41.2085 611.565 41.1217L605.506 38.5485C604.935 38.3065 604.567 37.7607 604.567 37.1579C604.567 36.5551 604.935 36.0094 605.506 35.7668L605.506 35.7669ZM628.374 22.2334C624.62 17.9137 620.358 14.4812 615.708 12.0305C610.633 9.35583 605.347 8 599.999 8C594.651 8 589.365 9.35579 584.291 12.0305C579.641 14.4812 575.379 17.9137 571.624 22.2334C564.345 30.6086 560 41.2779 560 50.7723C560 68.0764 574.579 78 600 78C625.421 78 640 68.076 640 50.7723C640 41.2774 635.654 30.6084 628.376 22.2334H628.374Z" fill="white"/>
<path fill-rule="evenodd" clip-rule="evenodd" d="M679.992 47.3427C675.748 47.3427 671.97 49.2638 669.527 52.2531C672.36 54.5479 676.009 55.9299 679.992 55.9299C683.974 55.9299 687.623 54.5481 690.456 52.2531C688.013 49.2638 684.235 47.3427 679.992 47.3427ZM679.992 58.8215C670.128 58.8215 662.103 51.0524 662.103 41.5021C662.103 40.6634 662.806 39.9835 663.672 39.9835H696.312C697.178 39.9835 697.88 40.6633 697.88 41.5021C697.88 51.0524 689.855 58.8215 679.992 58.8215V58.8215ZM667.158 31.9758C666.365 31.6388 666.004 30.7431 666.352 29.9749C666.7 29.2073 667.625 28.8573 668.418 29.1942L674.479 31.7669C675.049 32.0094 675.417 32.5552 675.417 33.158C675.417 33.7608 675.049 34.3065 674.479 34.5485L668.418 37.1217C668.214 37.2085 668 37.2498 667.79 37.2498C667.185 37.2498 666.61 36.9101 666.352 36.3405C666.005 35.5722 666.366 34.6766 667.159 34.3402L669.943 33.158L667.158 31.9758ZM685.506 31.7669L691.565 29.1943C692.359 28.8579 693.284 29.2073 693.632 29.975C693.98 30.7432 693.618 31.6388 692.825 31.9758L690.041 33.158L692.825 34.3401C693.618 34.6765 693.98 35.5722 693.632 36.3404C693.374 36.9101 692.798 37.2497 692.194 37.2497C691.984 37.2497 691.77 37.2085 691.565 37.1217L685.506 34.5485C684.935 34.3065 684.567 33.7607 684.567 33.1579C684.567 32.5551 684.935 32.0094 685.506 31.7668L685.506 31.7669ZM708.374 18.2334C704.62 13.9137 700.358 10.4812 695.708 8.03055C690.633 5.35583 685.347 4 679.999 4C674.651 4 669.365 5.35579 664.291 8.03055C659.641 10.4812 655.379 13.9137 651.624 18.2334C644.345 26.6086 640 37.2779 640 46.7723C640 64.0764 654.579 74 680 74C705.421 74 720 64.076 720 46.7723C720 37.2774 715.654 26.6084 708.376 18.2334H708.374Z" fill="white"/>
<path fill-rule="evenodd" clip-rule="evenodd" d="M759.992 43.3427C755.748 43.3427 751.97 45.2638 749.527 48.2531C752.36 50.5479 756.009 51.9299 759.992 51.9299C763.974 51.9299 767.623 50.5481 770.456 48.2531C768.013 45.2638 764.235 43.3427 759.992 43.3427ZM759.992 54.8215C750.128 54.8215 742.103 47.0524 742.103 37.5021C742.103 36.6634 742.806 35.9835 743.672 35.9835H776.312C777.178 35.9835 777.88 36.6633 777.88 37.5021C777.88 47.0524 769.855 54.8215 759.992 54.8215V54.8215ZM747.158 27.9758C746.365 27.6388 746.004 26.7431 746.352 25.9749C746.7 25.2073 747.625 24.8573 748.418 25.1942L754.479 27.7669C755.049 28.0094 755.417 28.5552 755.417 29.158C755.417 29.7608 755.049 30.3065 754.479 30.5485L748.418 33.1217C748.214 33.2085 748 33.2498 747.79 33.2498C747.185 33.2498 746.61 32.9101 746.352 32.3405C746.005 31.5722 746.366 30.6766 747.159 30.3402L749.943 29.158L747.158 27.9758ZM765.506 27.7669L771.565 25.1943C772.359 24.8579 773.284 25.2073 773.632 25.975C773.98 26.7432 773.618 27.6388 772.825 27.9758L770.041 29.158L772.825 30.3401C773.618 30.6765 773.98 31.5722 773.632 32.3404C773.374 32.9101 772.798 33.2497 772.194 33.2497C771.984 33.2497 771.77 33.2085 771.565 33.1217L765.506 30.5485C764.935 30.3065 764.567 29.7607 764.567 29.1579C764.567 28.5551 764.935 28.0094 765.506 27.7668L765.506 27.7669ZM788.374 14.2334C784.62 9.91373 780.358 6.48124 775.708 4.03055C770.633 1.35583 765.347 0 759.999 0C754.651 0 749.365 1.35579 744.291 4.03055C739.641 6.48124 735.379 9.91373 731.624 14.2334C724.345 22.6086 720 33.2779 720 42.7723C720 60.0764 734.579 70 760 70C785.421 70 800 60.076 800 42.7723C800 33.2774 795.654 22.6084 788.376 14.2334H788.374Z" fill="white"/>
<path fill-rule="evenodd" clip-rule="evenodd" d="M839.992 47.3427C835.748 47.3427 831.97 49.2638 829.527 52.2531C832.36 54.5479 836.009 55.9299 839.992 55.9299C843.974 55.9299 847.623 54.5481 850.456 52.2531C848.013 49.2638 844.235 47.3427 839.992 47.3427ZM839.992 58.8215C830.128 58.8215 822.103 51.0524 822.103 41.5021C822.103 40.6634 822.806 39.9835 823.672 39.9835H856.312C857.178 39.9835 857.88 40.6633 857.88 41.5021C857.88 51.0524 849.855 58.8215 839.992 58.8215V58.8215ZM827.158 31.9758C826.365 31.6388 826.004 30.7431 826.352 29.9749C826.7 29.2073 827.625 28.8573 828.418 29.1942L834.479 31.7669C835.049 32.0094 835.417 32.5552 835.417 33.158C835.417 33.7608 835.049 34.3065 834.479 34.5485L828.418 37.1217C828.214 37.2085 828 37.2498 827.79 37.2498C827.185 37.2498 826.61 36.9101 826.352 36.3405C826.005 35.5722 826.366 34.6766 827.159 34.3402L829.943 33.158L827.158 31.9758ZM845.506 31.7669L851.565 29.1943C852.359 28.8579 853.284 29.2073 853.632 29.975C853.98 30.7432 853.618 31.6388 852.825 31.9758L850.041 33.158L852.825 34.3401C853.618 34.6765 853.98 35.5722 853.632 36.3404C853.374 36.9101 852.798 37.2497 852.194 37.2497C851.984 37.2497 851.77 37.2085 851.565 37.1217L845.506 34.5485C844.935 34.3065 844.567 33.7607 844.567 33.1579C844.567 32.5551 844.935 32.0094 845.506 31.7668L845.506 31.7669ZM868.374 18.2334C864.62 13.9137 860.358 10.4812 855.708 8.03055C850.633 5.35583 845.347 4 839.999 4C834.651 4 829.365 5.35579 824.291 8.03055C819.641 10.4812 815.379 13.9137 811.624 18.2334C804.345 26.6086 800 37.2779 800 46.7723C800 64.0764 814.579 74 840 74C865.421 74 880 64.076 880 46.7723C880 37.2774 875.654 26.6084 868.376 18.2334H868.374Z" fill="white"/>
<path fill-rule="evenodd" clip-rule="evenodd" d="M919.992 51.3427C915.748 51.3427 911.97 53.2638 909.527 56.2531C912.36 58.5479 916.009 59.9299 919.992 59.9299C923.974 59.9299 927.623 58.5481 930.456 56.2531C928.013 53.2638 924.235 51.3427 919.992 51.3427ZM919.992 62.8215C910.128 62.8215 902.103 55.0524 902.103 45.5021C902.103 44.6634 902.806 43.9835 903.672 43.9835H936.312C937.178 43.9835 937.88 44.6633 937.88 45.5021C937.88 55.0524 929.855 62.8215 919.992 62.8215V62.8215ZM907.158 35.9758C906.365 35.6388 906.004 34.7431 906.352 33.9749C906.7 33.2073 907.625 32.8573 908.418 33.1942L914.479 35.7669C915.049 36.0094 915.417 36.5552 915.417 37.158C915.417 37.7608 915.049 38.3065 914.479 38.5485L908.418 41.1217C908.214 41.2085 908 41.2498 907.79 41.2498C907.185 41.2498 906.61 40.9101 906.352 40.3405C906.005 39.5722 906.366 38.6766 907.159 38.3402L909.943 37.158L907.158 35.9758ZM925.506 35.7669L931.565 33.1943C932.359 32.8579 933.284 33.2073 933.632 33.975C933.98 34.7432 933.618 35.6388 932.825 35.9758L930.041 37.158L932.825 38.3401C933.618 38.6765 933.98 39.5722 933.632 40.3404C933.374 40.9101 932.798 41.2497 932.194 41.2497C931.984 41.2497 931.77 41.2085 931.565 41.1217L925.506 38.5485C924.935 38.3065 924.567 37.7607 924.567 37.1579C924.567 36.5551 924.935 36.0094 925.506 35.7668L925.506 35.7669ZM948.374 22.2334C944.62 17.9137 940.358 14.4812 935.708 12.0305C930.633 9.35583 925.347 8 919.999 8C914.651 8 909.365 9.35579 904.291 12.0305C899.641 14.4812 895.379 17.9137 891.624 22.2334C884.345 30.6086 880 41.2779 880 50.7723C880 68.0764 894.579 78 920 78C945.421 78 960 68.076 960 50.7723C960 41.2774 955.654 30.6084 948.376 22.2334H948.374Z" fill="white"/>
<path fill-rule="evenodd" clip-rule="evenodd" d="M999.992 55.3427C995.748 55.3427 991.97 57.2638 989.527 60.2531C992.36 62.5479 996.009 63.9299 999.992 63.9299C1003.97 63.9299 1007.62 62.5481 1010.46 60.2531C1008.01 57.2638 1004.24 55.3427 999.992 55.3427ZM999.992 66.8215C990.128 66.8215 982.103 59.0524 982.103 49.5021C982.103 48.6634 982.806 47.9835 983.672 47.9835H1016.31C1017.18 47.9835 1017.88 48.6633 1017.88 49.5021C1017.88 59.0524 1009.85 66.8215 999.992 66.8215V66.8215ZM987.158 39.9758C986.365 39.6388 986.004 38.7431 986.352 37.9749C986.7 37.2073 987.625 36.8573 988.418 37.1942L994.479 39.7669C995.049 40.0094 995.417 40.5552 995.417 41.158C995.417 41.7608 995.049 42.3065 994.479 42.5485L988.418 45.1217C988.214 45.2085 988 45.2498 987.79 45.2498C987.185 45.2498 986.61 44.9101 986.352 44.3405C986.005 43.5722 986.366 42.6766 987.159 42.3402L989.943 41.158L987.158 39.9758ZM1005.51 39.7669L1011.57 37.1943C1012.36 36.8579 1013.28 37.2073 1013.63 37.975C1013.98 38.7432 1013.62 39.6388 1012.83 39.9758L1010.04 41.158L1012.83 42.3401C1013.62 42.6765 1013.98 43.5722 1013.63 44.3404C1013.37 44.9101 1012.8 45.2497 1012.19 45.2497C1011.98 45.2497 1011.77 45.2085 1011.57 45.1217L1005.51 42.5485C1004.94 42.3065 1004.57 41.7607 1004.57 41.1579C1004.57 40.5551 1004.94 40.0094 1005.51 39.7668L1005.51 39.7669ZM1028.37 26.2334C1024.62 21.9137 1020.36 18.4812 1015.71 16.0305C1010.63 13.3558 1005.35 12 999.999 12C994.651 12 989.365 13.3558 984.291 16.0305C979.641 18.4812 975.379 21.9137 971.624 26.2334C964.345 34.6086 960 45.2779 960 54.7723C960 72.0764 974.579 82 1000 82C1025.42 82 1040 72.076 1040 54.7723C1040 45.2774 1035.65 34.6084 1028.38 26.2334H1028.37Z" fill="white"/>
<path fill-rule="evenodd" clip-rule="evenodd" d="M1079.99 59.3427C1075.75 59.3427 1071.97 61.2638 1069.53 64.2531C1072.36 66.5479 1076.01 67.9299 1079.99 67.9299C1083.97 67.9299 1087.62 66.5481 1090.46 64.2531C1088.01 61.2638 1084.24 59.3427 1079.99 59.3427ZM1079.99 70.8215C1070.13 70.8215 1062.1 63.0524 1062.1 53.5021C1062.1 52.6634 1062.81 51.9835 1063.67 51.9835H1096.31C1097.18 51.9835 1097.88 52.6633 1097.88 53.5021C1097.88 63.0524 1089.85 70.8215 1079.99 70.8215V70.8215ZM1067.16 43.9758C1066.37 43.6388 1066 42.7431 1066.35 41.9749C1066.7 41.2073 1067.62 40.8573 1068.42 41.1942L1074.48 43.7669C1075.05 44.0094 1075.42 44.5552 1075.42 45.158C1075.42 45.7608 1075.05 46.3065 1074.48 46.5485L1068.42 49.1217C1068.21 49.2085 1068 49.2498 1067.79 49.2498C1067.19 49.2498 1066.61 48.9101 1066.35 48.3405C1066 47.5722 1066.37 46.6766 1067.16 46.3402L1069.94 45.158L1067.16 43.9758ZM1085.51 43.7669L1091.57 41.1943C1092.36 40.8579 1093.28 41.2073 1093.63 41.975C1093.98 42.7432 1093.62 43.6388 1092.83 43.9758L1090.04 45.158L1092.83 46.3401C1093.62 46.6765 1093.98 47.5722 1093.63 48.3404C1093.37 48.9101 1092.8 49.2497 1092.19 49.2497C1091.98 49.2497 1091.77 49.2085 1091.57 49.1217L1085.51 46.5485C1084.94 46.3065 1084.57 45.7607 1084.57 45.1579C1084.57 44.5551 1084.94 44.0094 1085.51 43.7668L1085.51 43.7669ZM1108.37 30.2334C1104.62 25.9137 1100.36 22.4812 1095.71 20.0305C1090.63 17.3558 1085.35 16 1080 16C1074.65 16 1069.37 17.3558 1064.29 20.0305C1059.64 22.4812 1055.38 25.9137 1051.62 30.2334C1044.35 38.6086 1040 49.2779 1040 58.7723C1040 76.0764 1054.58 86 1080 86C1105.42 86 1120 76.076 1120 58.7723C1120 49.2774 1115.65 38.6084 1108.38 30.2334H1108.37Z" fill="white"/>
<path fill-rule="evenodd" clip-rule="evenodd" d="M1159.99 63.3427C1155.75 63.3427 1151.97 65.2638 1149.53 68.2531C1152.36 70.5479 1156.01 71.9299 1159.99 71.9299C1163.97 71.9299 1167.62 70.5481 1170.46 68.2531C1168.01 65.2638 1164.24 63.3427 1159.99 63.3427ZM1159.99 74.8215C1150.13 74.8215 1142.1 67.0524 1142.1 57.5021C1142.1 56.6634 1142.81 55.9835 1143.67 55.9835H1176.31C1177.18 55.9835 1177.88 56.6633 1177.88 57.5021C1177.88 67.0524 1169.85 74.8215 1159.99 74.8215V74.8215ZM1147.16 47.9758C1146.37 47.6388 1146 46.7431 1146.35 45.9749C1146.7 45.2073 1147.62 44.8573 1148.42 45.1942L1154.48 47.7669C1155.05 48.0094 1155.42 48.5552 1155.42 49.158C1155.42 49.7608 1155.05 50.3065 1154.48 50.5485L1148.42 53.1217C1148.21 53.2085 1148 53.2498 1147.79 53.2498C1147.19 53.2498 1146.61 52.9101 1146.35 52.3405C1146 51.5722 1146.37 50.6766 1147.16 50.3402L1149.94 49.158L1147.16 47.9758ZM1165.51 47.7669L1171.57 45.1943C1172.36 44.8579 1173.28 45.2073 1173.63 45.975C1173.98 46.7432 1173.62 47.6388 1172.83 47.9758L1170.04 49.158L1172.83 50.3401C1173.62 50.6765 1173.98 51.5722 1173.63 52.3404C1173.37 52.9101 1172.8 53.2497 1172.19 53.2497C1171.98 53.2497 1171.77 53.2085 1171.57 53.1217L1165.51 50.5485C1164.94 50.3065 1164.57 49.7607 1164.57 49.1579C1164.57 48.5551 1164.94 48.0094 1165.51 47.7668L1165.51 47.7669ZM1188.37 34.2334C1184.62 29.9137 1180.36 26.4812 1175.71 24.0305C1170.63 21.3558 1165.35 20 1160 20C1154.65 20 1149.37 21.3558 1144.29 24.0305C1139.64 26.4812 1135.38 29.9137 1131.62 34.2334C1124.35 42.6086 1120 53.2779 1120 62.7723C1120 80.0764 1134.58 90 1160 90C1185.42 90 1200 80.076 1200 62.7723C1200 53.2774 1195.65 42.6084 1188.38 34.2334H1188.37Z" fill="white"/>
<path fill-rule="evenodd" clip-rule="evenodd" d="M1239.99 67.3427C1235.75 67.3427 1231.97 69.2638 1229.53 72.2531C1232.36 74.5479 1236.01 75.9299 1239.99 75.9299C1243.97 75.9299 1247.62 74.5481 1250.46 72.2531C1248.01 69.2638 1244.24 67.3427 1239.99 67.3427ZM1239.99 78.8215C1230.13 78.8215 1222.1 71.0524 1222.1 61.5021C1222.1 60.6634 1222.81 59.9835 1223.67 59.9835H1256.31C1257.18 59.9835 1257.88 60.6633 1257.88 61.5021C1257.88 71.0524 1249.85 78.8215 1239.99 78.8215V78.8215ZM1227.16 51.9758C1226.37 51.6388 1226 50.7431 1226.35 49.9749C1226.7 49.2073 1227.62 48.8573 1228.42 49.1942L1234.48 51.7669C1235.05 52.0094 1235.42 52.5552 1235.42 53.158C1235.42 53.7608 1235.05 54.3065 1234.48 54.5485L1228.42 57.1217C1228.21 57.2085 1228 57.2498 1227.79 57.2498C1227.19 57.2498 1226.61 56.9101 1226.35 56.3405C1226 55.5722 1226.37 54.6766 1227.16 54.3402L1229.94 53.158L1227.16 51.9758ZM1245.51 51.7669L1251.57 49.1943C1252.36 48.8579 1253.28 49.2073 1253.63 49.975C1253.98 50.7432 1253.62 51.6388 1252.83 51.9758L1250.04 53.158L1252.83 54.3401C1253.62 54.6765 1253.98 55.5722 1253.63 56.3404C1253.37 56.9101 1252.8 57.2497 1252.19 57.2497C1251.98 57.2497 1251.77 57.2085 1251.57 57.1217L1245.51 54.5485C1244.94 54.3065 1244.57 53.7607 1244.57 53.1579C1244.57 52.5551 1244.94 52.0094 1245.51 51.7668L1245.51 51.7669ZM1268.37 38.2334C1264.62 33.9137 1260.36 30.4812 1255.71 28.0305C1250.63 25.3558 1245.35 24 1240 24C1234.65 24 1229.37 25.3558 1224.29 28.0305C1219.64 30.4812 1215.38 33.9137 1211.62 38.2334C1204.35 46.6086 1200 57.2779 1200 66.7723C1200 84.0764 1214.58 94 1240 94C1265.42 94 1280 84.076 1280 66.7723C1280 57.2774 1275.65 46.6084 1268.38 38.2334H1268.37Z" fill="white"/>
<path fill-rule="evenodd" clip-rule="evenodd" d="M1319.99 71.3427C1315.75 71.3427 1311.97 73.2638 1309.53 76.2531C1312.36 78.5479 1316.01 79.9299 1319.99 79.9299C1323.97 79.9299 1327.62 78.5481 1330.46 76.2531C1328.01 73.2638 1324.24 71.3427 1319.99 71.3427ZM1319.99 82.8215C1310.13 82.8215 1302.1 75.0524 1302.1 65.5021C1302.1 64.6634 1302.81 63.9835 1303.67 63.9835H1336.31C1337.18 63.9835 1337.88 64.6633 1337.88 65.5021C1337.88 75.0524 1329.85 82.8215 1319.99 82.8215V82.8215ZM1307.16 55.9758C1306.37 55.6388 1306 54.7431 1306.35 53.9749C1306.7 53.2073 1307.62 52.8573 1308.42 53.1942L1314.48 55.7669C1315.05 56.0094 1315.42 56.5552 1315.42 57.158C1315.42 57.7608 1315.05 58.3065 1314.48 58.5485L1308.42 61.1217C1308.21 61.2085 1308 61.2498 1307.79 61.2498C1307.19 61.2498 1306.61 60.9101 1306.35 60.3405C1306 59.5722 1306.37 58.6766 1307.16 58.3402L1309.94 57.158L1307.16 55.9758ZM1325.51 55.7669L1331.57 53.1943C1332.36 52.8579 1333.28 53.2073 1333.63 53.975C1333.98 54.7432 1333.62 55.6388 1332.83 55.9758L1330.04 57.158L1332.83 58.3401C1333.62 58.6765 1333.98 59.5722 1333.63 60.3404C1333.37 60.9101 1332.8 61.2497 1332.19 61.2497C1331.98 61.2497 1331.77 61.2085 1331.57 61.1217L1325.51 58.5485C1324.94 58.3065 1324.57 57.7607 1324.57 57.1579C1324.57 56.5551 1324.94 56.0094 1325.51 55.7668L1325.51 55.7669ZM1348.37 42.2334C1344.62 37.9137 1340.36 34.4812 1335.71 32.0305C1330.63 29.3558 1325.35 28 1320 28C1314.65 28 1309.37 29.3558 1304.29 32.0305C1299.64 34.4812 1295.38 37.9137 1291.62 42.2334C1284.35 50.6086 1280 61.2779 1280 70.7723C1280 88.0764 1294.58 98 1320 98C1345.42 98 1360 88.076 1360 70.7723C1360 61.2774 1355.65 50.6084 1348.38 42.2334H1348.37Z" fill="white"/>
<path fill-rule="evenodd" clip-rule="evenodd" d="M1399.99 75.3427C1395.75 75.3427 1391.97 77.2638 1389.53 80.2531C1392.36 82.5479 1396.01 83.9299 1399.99 83.9299C1403.97 83.9299 1407.62 82.5481 1410.46 80.2531C1408.01 77.2638 1404.24 75.3427 1399.99 75.3427ZM1399.99 86.8215C1390.13 86.8215 1382.1 79.0524 1382.1 69.5021C1382.1 68.6634 1382.81 67.9835 1383.67 67.9835H1416.31C1417.18 67.9835 1417.88 68.6633 1417.88 69.5021C1417.88 79.0524 1409.85 86.8215 1399.99 86.8215V86.8215ZM1387.16 59.9758C1386.37 59.6388 1386 58.7431 1386.35 57.9749C1386.7 57.2073 1387.62 56.8573 1388.42 57.1942L1394.48 59.7669C1395.05 60.0094 1395.42 60.5552 1395.42 61.158C1395.42 61.7608 1395.05 62.3065 1394.48 62.5485L1388.42 65.1217C1388.21 65.2085 1388 65.2498 1387.79 65.2498C1387.19 65.2498 1386.61 64.9101 1386.35 64.3405C1386 63.5722 1386.37 62.6766 1387.16 62.3402L1389.94 61.158L1387.16 59.9758ZM1405.51 59.7669L1411.57 57.1943C1412.36 56.8579 1413.28 57.2073 1413.63 57.975C1413.98 58.7432 1413.62 59.6388 1412.83 59.9758L1410.04 61.158L1412.83 62.3401C1413.62 62.6765 1413.98 63.5722 1413.63 64.3404C1413.37 64.9101 1412.8 65.2497 1412.19 65.2497C1411.98 65.2497 1411.77 65.2085 1411.57 65.1217L1405.51 62.5485C1404.94 62.3065 1404.57 61.7607 1404.57 61.1579C1404.57 60.5551 1404.94 60.0094 1405.51 59.7668L1405.51 59.7669ZM1428.37 46.2334C1424.62 41.9137 1420.36 38.4812 1415.71 36.0305C1410.63 33.3558 1405.35 32 1400 32C1394.65 32 1389.37 33.3558 1384.29 36.0305C1379.64 38.4812 1375.38 41.9137 1371.62 46.2334C1364.35 54.6086 1360 65.2779 1360 74.7723C1360 92.0764 1374.58 102 1400 102C1425.42 102 1440 92.076 1440 74.7723C1440 65.2774 1435.65 54.6084 1428.38 46.2334H1428.37Z" fill="white"/>
</svg>
